<svg xmlns="http://www.w3.org/2000/svg" version="1.1" xmlns:xlink="http://www.w3.org/1999/xlink" xmlns:svgjs="http://svgjs.dev/svgjs" width="1440" height="560" preserveAspectRatio="none" viewBox="0 0 1440 560"><g mask="url(&quot;#SvgjsMask1186&quot;)" fill="none"><rect width="1440" height="560" x="0" y="0" fill="rgba(255, 120, 0, 0.59)"></rect><path d="M0,674.114C125.406,679.863,242.703,607.568,337.77,525.58C425.293,450.098,480.625,344.885,511.036,233.382C538.389,133.089,496.976,31.891,500.748,-71.997C505.617,-206.093,598.857,-346.026,536.386,-464.781C474.037,-583.304,322.508,-623.219,192.946,-657.114C66.089,-690.302,-66.324,-691.288,-192.46,-655.459C-319.351,-619.415,-454.779,-566.21,-523.493,-453.609C-590.111,-344.441,-554.977,-205.782,-544.659,-78.31C-536.364,24.172,-507.135,118.727,-469.424,214.379C-429.605,315.378,-395.999,419.533,-318.436,495.496C-229.688,582.412,-124.09,668.425,0,674.114" fill="rgba(202, 95, 0, 0.59)"></path><path d="M1440 1085.815C1536.413 1077.882 1598.719 985.722 1682.378 937.1469999999999 1771.225 885.56 1894.184 879.6759999999999 1946.9 791.4929999999999 2000.1660000000002 702.39 1995.87 580.414 1951.828 486.40999999999997 1910.556 398.318 1802.721 370.747 1723.394 314.437 1664.63 272.724 1611.12 229.652 1546.16 198.452 1469.275 161.52499999999998 1394.588 109.32799999999997 1309.53 115.66000000000003 1217.054 122.54399999999998 1127.829 166.91199999999998 1064.158 234.33100000000002 999.2 303.113 964.1759999999999 396.139 955.658 490.36199999999997 947.393 581.789 980.323 669.018 1017.264 753.057 1054.674 838.165 1097.507 921.7570000000001 1170.558 979.259 1248.018 1040.232 1341.753 1093.899 1440 1085.815" fill="rgba(255, 148, 54, 0.59)"></path></g><defs><mask id="SvgjsMask1186"><rect width="1440" height="560" fill="#ffffff"></rect></mask></defs></svg>